<svg width="128" height="138" viewBox="0 0 128 138" fill="none" xmlns="http://www.w3.org/2000/svg">
<path d="M54.1486 35.9464L47.5286 62.7064C47.5286 62.7064 19.9486 102.896 20.6686 78.7064C22.2086 27.3164 54.1486 35.9464 54.1486 35.9464Z" fill="#F49F58"/>
<path d="M76.3486 10.1065C74.8486 9.78652 26.0486 25.0465 22.9786 26.1665C19.9086 27.2865 12.6186 28.0465 10.3186 33.8365C8.01861 39.6265 10.3186 50.3365 10.3186 54.9365C10.3186 59.5365 9.16861 88.317 9.54861 92.537C9.78861 95.237 12.9986 97.907 16.0686 98.287C19.1386 98.667 24.1286 93.687 25.2786 90.617C26.4286 87.547 31.7986 49.9465 32.5686 47.2665C33.3386 44.5865 45.5686 46.1165 48.2986 46.1165C51.0286 46.1165 74.7686 69.5165 74.7686 72.9765C74.7686 76.4365 60.5786 92.547 58.6586 92.547C56.7386 92.547 29.0286 99.317 27.1986 100.607C23.3586 103.297 20.2686 110.417 21.4486 117.487C22.2186 122.087 27.5886 123.627 31.8086 123.247C35.4286 122.917 55.9786 121.717 62.4986 121.327C66.7786 121.077 75.1586 117.487 77.4986 115.957C79.8386 114.427 95.8986 101.747 97.0186 99.827C98.139 97.907 112.099 87.267 114.279 83.137C117.729 76.6165 128.669 34.7965 127.519 33.0665C122.289 25.2165 82.6586 11.4165 76.3486 10.1065Z" fill="#FFC585"/>
<g style="mix-blend-mode:multiply" opacity="0.4">
<path d="M118.719 26.6365C111.279 22.6365 100.719 18.3365 91.8686 15.1265C80.7686 28.2365 68.2786 40.0465 55.8186 51.8165C63.7086 58.9765 74.8186 70.6165 74.8186 72.9665C74.8186 74.5465 71.8186 78.7865 68.4286 82.916C69.5786 82.916 76.8486 91.346 90.1686 78.5265C110.639 58.7765 117.899 46.4665 119.639 36.3065C120.279 33.0623 119.959 29.7017 118.719 26.6365Z" fill="#FFC585"/>
</g>
<path d="M12.9986 50.3365C10.6986 57.6265 3.19862 95.807 2.99862 99.447C2.78862 103.767 4.82862 106.597 8.7486 106.357C12.1386 106.147 17.3286 103.417 19.1086 100.217C22.4486 94.217 23.2986 94.997 30.2386 49.9565L12.9986 50.3365Z" fill="#FFC585"/>
<g style="mix-blend-mode:multiply" opacity="0.4">
<path d="M12.9986 50.3365C10.6986 57.6265 3.19862 95.807 2.99862 99.447C2.78862 103.767 4.82862 106.597 8.7486 106.357C12.1386 106.147 17.3286 103.417 19.1086 100.217C22.4486 94.217 23.2986 94.997 30.2386 49.9565L12.9986 50.3365Z" fill="#FFC585"/>
</g>
<path d="M114.119 16.936C114.119 16.936 109.819 54.876 109.019 56.296C108.219 57.716 82.7287 86.426 80.7987 87.226C78.8687 88.026 68.3287 89.536 70.2687 85.046C72.2087 80.556 77.5987 82.116 78.4387 81.386C79.2787 80.656 100.319 55.656 100.899 54.476C101.479 53.296 101.639 24.476 101.639 24.476L114.119 16.936Z" fill="#363F4F"/>
<path d="M111.969 19.1265C111.969 19.1265 108.099 55.1265 107.309 56.5365C106.519 57.9465 82.0087 86.246 80.0787 87.046C78.1487 87.846 68.3287 89.536 70.2687 85.046C72.2087 80.556 77.5987 82.116 78.4387 81.386C79.2787 80.656 100.319 55.6565 100.899 54.4765C101.479 53.2965 101.639 24.4765 101.639 24.4765L111.969 19.1265Z" fill="#4B5668"/>
<g style="mix-blend-mode:multiply" opacity="0.4">
<path d="M110.149 35.4065C111.149 26.9265 111.959 19.1265 111.959 19.1265L101.649 24.5265C101.649 24.5265 101.569 39.8065 101.299 48.5265C102.199 47.2365 107.579 39.8765 110.149 35.4065Z" fill="#4B5668"/>
</g>
<g style="mix-blend-mode:multiply" opacity="0.4">
<path d="M70.4487 87.156C72.6387 83.796 77.8787 81.806 78.1387 81.546C76.7287 81.926 72.0587 80.986 70.2787 85.076C70.0768 85.394 69.9841 85.769 70.0148 86.145C70.0455 86.52 70.1978 86.875 70.4487 87.156Z" fill="#4B5668"/>
</g>
<path d="M32.1287 66.7661C42.2087 70.0661 56.1287 81.826 61.4387 92.566L56.8987 97.426C46.2987 93.426 31.4887 79.5561 28.8987 71.5961L32.1287 66.7661Z" fill="#EDBD15"/>
<g style="mix-blend-mode:multiply">
<path d="M45.0588 74.0464C42.9688 77.0464 40.5188 79.8464 38.2688 82.816C38.0288 83.136 37.7988 83.466 37.5688 83.816C43.3188 89.646 50.7889 95.196 56.8689 97.466L61.4389 92.616C58.2189 86.046 51.8288 79.1764 45.0588 74.0464Z" fill="#EDBD15"/>
</g>
<path d="M2.68876 129.136C2.68876 129.136 -0.881243 136.686 0.268757 137.716C1.78876 139.076 7.97876 133.186 7.97876 133.186L2.68876 129.136Z" fill="#C6D0D5"/>
<g style="mix-blend-mode:multiply">
<path d="M6.84875 130.436C5.73875 132.836 3.63875 135.906 0.94875 136.736C0.71143 136.808 0.46637 136.852 0.21875 136.866C0.2243 137.056 0.29898 137.237 0.42875 137.376C1.94875 138.736 8.1387 132.846 8.1387 132.846L6.84875 130.436Z" fill="#C7D1D6"/>
</g>
<path d="M0.848706 129.866C4.00871 121.726 18.4587 89.726 32.3487 68.5662C40.7187 55.8162 86.2087 -15.4337 110.509 3.76622C132.099 20.7662 79.4487 73.6262 57.6987 94.646C40.8987 110.916 10.4487 133.436 8.2387 134.766C6.02871 136.096 0.238706 131.436 0.848706 129.866Z" fill="#4B5668"/>
<g style="mix-blend-mode:multiply" opacity="0.4">
<path d="M47.8988 93.676C41.4788 100.056 27.8088 113.676 18.7488 122.156C9.8988 130.466 5.09877 132.856 3.48877 133.406C5.13877 134.596 7.12877 135.406 8.2388 134.766C10.4588 133.436 40.8688 110.916 57.6888 94.656C76.8988 76.1163 120.059 32.8463 115.209 11.1963C115.209 13.5663 107.449 15.0563 103.209 24.3963C94.4488 43.8063 62.6588 79.0463 47.8988 93.676Z" fill="#4B5668"/>
</g>
<path d="M91.7588 27.9562C99.659 34.0762 109.429 34.7262 110.839 31.0262C116.589 19.5562 117.839 9.57617 110.499 3.76617C102.499 -2.56383 92.1388 0.976171 81.5888 9.00617C79.3588 12.8962 83.2288 21.3562 91.7588 27.9562Z" fill="#69778B"/>
<path d="M82.6888 8.18617C92.8988 0.73617 102.759 -2.34383 110.499 3.76617C117.669 9.42617 116.649 19.0262 111.289 30.1062C105.429 38.4062 79.4588 20.7662 82.6888 8.18617Z" fill="#EDBD15"/>
<g style="mix-blend-mode:multiply">
<path d="M115.209 11.1562C114.559 21.6062 103.989 31.7563 93.2087 26.6763C100.119 31.8263 108.329 34.3363 111.329 30.1063C114.759 22.9563 116.399 16.4163 115.209 11.1562Z" fill="#EDBD15"/>
</g>
<path d="M9.3988 110.666C5.22878 119.426 2.11878 126.596 0.848776 129.876C0.238776 131.436 6.01878 136.096 8.2388 134.776C9.2388 134.186 15.6888 129.466 24.0688 122.986C19.6488 121.896 10.6388 115.226 9.3988 110.666Z" fill="#EDBD15"/>
<path d="M9.3988 110.666C7.50881 115.556 19.3988 123.586 24.0688 122.976C19.6488 121.896 10.6388 115.226 9.3988 110.666Z" fill="#FEEE28"/>
<g style="mix-blend-mode:screen">
<path d="M1.40869 131.456C1.68008 131.814 1.98115 132.149 2.30869 132.456C4.75869 128.766 10.1287 121.226 13.5287 116.456C12.4021 115.438 11.3956 114.294 10.5287 113.046C7.76869 117.726 3.89869 126.046 1.40869 131.456Z" fill="#EDBD15"/>
</g>
<g style="mix-blend-mode:multiply">
<path d="M19.2989 120.776C15.1089 125.776 10.2989 130.086 5.58887 134.606C5.98964 134.827 6.43435 134.955 6.89088 134.983C7.34742 135.011 7.80441 134.937 8.2289 134.766C9.2289 134.176 15.6789 129.456 24.0589 122.976C22.3752 122.474 20.7722 121.733 19.2989 120.776Z" fill="#EDBD15"/>
</g>
<path d="M32.1287 66.7661C36.4287 75.2661 51.3987 89.286 61.4387 92.566L56.8987 97.426C46.2987 93.426 31.4887 79.5561 28.8987 71.5961L32.1287 66.7661Z" fill="#FEEE28"/>
<path d="M32.1287 66.7661C35.4287 76.7661 51.5287 91.046 61.4387 92.566L56.8987 97.426C46.2987 93.426 31.4887 79.5561 28.8987 71.5961L32.1287 66.7661Z" fill="#EDBD15"/>
<g style="mix-blend-mode:multiply">
<path d="M51.9886 87.516C54.8852 89.638 58.0665 91.342 61.4386 92.576L56.8986 97.426C53.601 96.1 50.4806 94.37 47.6086 92.276C49.0386 90.916 50.0486 89.646 51.9886 87.516Z" fill="#EDBD15"/>
</g>
<g style="mix-blend-mode:screen">
<path d="M37.8988 74.8563C36.9788 73.8563 36.1188 72.7663 35.3488 71.7563C34.0888 73.4363 32.8988 75.1663 31.7588 76.9363C32.3588 77.7963 33.0388 78.6664 33.7588 79.5564C35.0582 77.9205 36.44 76.3518 37.8988 74.8563Z" fill="#EDBD15"/>
</g>
<g style="mix-blend-mode:screen" opacity="0.7">
<path d="M2.3487 133.046C3.3487 133.596 1.0887 136.376 0.928699 135.776C0.768699 135.176 1.5287 132.586 2.3487 133.046Z" fill="#C7D1D6"/>
</g>
<g style="mix-blend-mode:screen" opacity="0.7">
<path d="M106.509 55.3764C106.999 53.7464 80.5887 83.606 81.1087 84.296C81.6287 84.986 105.699 58.0464 106.509 55.3764Z" fill="#4B5668"/>
</g>
<g style="mix-blend-mode:screen" opacity="0.4">
<path d="M100.829 2.04601C97.3888 1.74601 91.8288 5.04601 92.6488 6.65601C94.8488 10.866 104.709 8.65601 105.529 6.65601C106.659 3.79601 102.639 2.23601 100.829 2.04601Z" fill="#EDBD15"/>
</g>
<g style="mix-blend-mode:screen" opacity="0.4">
<path d="M79.8989 21.4263C74.3089 21.6463 44.4089 58.5863 41.5989 67.6663C45.3389 65.8263 52.7889 54.4263 60.4589 45.1263C69.7289 33.9363 79.0489 24.5063 79.8989 21.4263Z" fill="#4B5668"/>
</g>
<g style="mix-blend-mode:screen" opacity="0.4">
<path d="M31.6487 80.846C28.0187 83.476 16.5187 100.646 13.7087 109.726C17.6787 105.206 30.7487 83.926 31.6487 80.846Z" fill="#4B5668"/>
</g>
<path d="M42.2486 45.7664C42.6386 44.3364 70.1486 16.0464 72.4986 11.1064C63.9786 13.8064 25.4286 25.2464 22.9786 26.1664C19.8986 27.3164 12.6186 28.0464 10.3186 33.8364C8.01861 39.6264 10.3186 50.3364 10.3186 54.9364C10.3186 59.5364 9.16861 88.316 9.54861 92.536C9.78861 95.236 12.9986 97.906 16.0686 98.286C19.1386 98.666 24.1286 93.686 25.2786 90.616C26.4286 87.546 31.7986 49.9464 32.5686 47.2664C33.0386 45.5964 37.8986 45.5564 42.2486 45.7664Z" fill="#FFC585"/>
<path d="M68.4086 91.976C66.6644 91.339 65.1262 90.24 63.9586 88.796C61.4586 91.096 59.2986 92.536 58.6586 92.536C56.7386 92.536 29.0286 99.306 27.1986 100.596C23.3586 103.286 20.2686 110.406 21.4486 117.476C22.2186 122.076 27.5886 123.616 31.8086 123.236C35.4286 122.906 55.9786 121.706 62.4986 121.316C66.7786 121.066 75.1586 117.476 77.4986 115.946C79.8386 114.416 95.8986 101.746 97.0186 99.826C97.1986 99.526 72.7386 93.616 68.4086 91.976Z" fill="#FFC585"/>
<path d="M26.4286 104.816C29.1186 102.126 41.4286 102.516 41.7786 104.436C42.1286 106.356 42.1586 114.436 41.3986 116.716C40.6386 118.996 27.2086 121.716 25.6686 119.406C22.2886 114.326 23.9986 107.236 26.4286 104.816Z" fill="#FFD5B8"/>
<path d="M17.8986 96.046C18.2209 91.284 18.1238 86.502 17.6086 81.756C17.2686 80.076 10.9586 79.9963 9.60858 79.6562C9.45858 85.656 9.37858 90.886 9.52858 92.496C9.78858 95.236 16.1686 97.816 17.8986 96.046Z" fill="#FFD5B8"/>
<g style="mix-blend-mode:multiply" opacity="0.4">
<path d="M115.899 71.9166C107.369 82.917 80.6987 110.187 70.5387 114.497C61.1387 118.497 29.9687 123.997 21.4287 117.497C22.1987 122.097 27.5687 123.637 31.7887 123.257C35.4087 122.927 55.9587 121.727 62.4787 121.337C66.7587 121.087 75.1387 117.497 77.4787 115.967C79.8187 114.437 95.8987 101.747 97.0187 99.827C98.139 97.907 112.099 87.267 114.279 83.137C115.399 81.017 117.279 75.1966 119.329 68.2266C118.239 69.4866 116.899 70.5866 115.899 71.9166Z" fill="#FFC585"/>
</g>
<g style="mix-blend-mode:multiply" opacity="0.4">
<path d="M25.2787 90.616C26.4287 87.546 31.7987 49.9464 32.5687 47.2664C33.1087 45.3764 39.3487 45.5764 43.9387 45.8564C44.6987 45.8564 32.3287 41.1264 29.9387 44.3864C26.6687 48.9264 26.7787 80.256 17.9387 94.456C17.3536 95.307 16.5549 95.989 15.6227 96.433C14.6906 96.877 13.658 97.068 12.6287 96.986C13.6453 97.673 14.8043 98.121 16.0187 98.296C19.1387 98.676 24.1287 93.686 25.2787 90.616Z" fill="#FFC585"/>
</g>
</svg>
