      <svg width="141" height="161" viewBox="0 0 141 161" fill="none"
                            xmlns="http://www.w3.org/2000/svg">
                            <path
                                d="M56.1486 55.9464L49.5286 82.7064C49.5286 82.7064 21.9486 122.896 22.6686 98.7064C24.2086 47.3164 56.1486 55.9464 56.1486 55.9464Z"
                                fill="#F49F58" />
                            <path
                                d="M78.3486 30.1065C76.8486 29.7865 28.0486 45.0465 24.9786 46.1665C21.9086 47.2865 14.6186 48.0465 12.3186 53.8365C10.0186 59.6265 12.3186 70.3365 12.3186 74.9365C12.3186 79.5365 11.1686 108.317 11.5486 112.537C11.7886 115.237 14.9986 117.907 18.0686 118.287C21.1386 118.667 26.1286 113.687 27.2786 110.617C28.4286 107.547 33.7986 69.9465 34.5686 67.2665C35.3386 64.5865 47.5686 66.1165 50.2986 66.1165C53.0286 66.1165 76.7686 89.5165 76.7686 92.9765C76.7686 96.4365 62.5786 112.547 60.6586 112.547C58.7386 112.547 31.0286 119.317 29.1986 120.607C25.3586 123.297 22.2686 130.417 23.4486 137.487C24.2186 142.087 29.5886 143.627 33.8086 143.247C37.4286 142.917 57.9786 141.717 64.4986 141.327C68.7786 141.077 77.1586 137.487 79.4986 135.957C81.8386 134.427 97.8986 121.747 99.0186 119.827C100.139 117.907 114.099 107.267 116.279 103.137C119.729 96.6165 130.669 54.7965 129.519 53.0665C124.289 45.2165 84.6586 31.4165 78.3486 30.1065Z"
                                fill="#FFC585" />
                            <g style="mix-blend-mode:multiply" opacity="0.4">
                                <path
                                    d="M120.719 46.6365C113.279 42.6365 102.719 38.3365 93.8686 35.1265C82.7686 48.2365 70.2786 60.0465 57.8186 71.8165C65.7086 78.9765 76.8186 90.6165 76.8186 92.9665C76.8186 94.5465 73.8186 98.7865 70.4286 102.916C71.5786 102.916 78.8486 111.346 92.1686 98.5265C112.639 78.7765 119.899 66.4665 121.639 56.3065C122.279 53.0623 121.959 49.7017 120.719 46.6365V46.6365Z"
                                    fill="#FFC585" />
                            </g>
                            <path
                                d="M14.9986 70.3365C12.6986 77.6265 5.19862 115.807 4.99862 119.447C4.78862 123.767 6.82862 126.597 10.7486 126.357C14.1386 126.147 19.3286 123.417 21.1086 120.217C24.4486 114.217 25.2986 114.997 32.2386 69.9565L14.9986 70.3365Z"
                                fill="#FFC585" />
                            <g style="mix-blend-mode:multiply" opacity="0.4">
                                <path
                                    d="M14.9986 70.3365C12.6986 77.6265 5.19862 115.807 4.99862 119.447C4.78862 123.767 6.82862 126.597 10.7486 126.357C14.1386 126.147 19.3286 123.417 21.1086 120.217C24.4486 114.217 25.2986 114.997 32.2386 69.9565L14.9986 70.3365Z"
                                    fill="#FFC585" />
                            </g>
                            <path
                                d="M116.119 36.936C116.119 36.936 111.819 74.876 111.019 76.296C110.219 77.716 84.7287 106.426 82.7987 107.226C80.8687 108.026 70.3287 109.536 72.2687 105.046C74.2087 100.556 79.5987 102.116 80.4387 101.386C81.2787 100.656 102.319 75.656 102.899 74.476C103.479 73.296 103.639 44.476 103.639 44.476L116.119 36.936Z"
                                fill="#363F4F" />
                            <path
                                d="M113.969 39.1265C113.969 39.1265 110.099 75.1265 109.309 76.5365C108.519 77.9465 84.0087 106.246 82.0787 107.046C80.1487 107.846 70.3287 109.536 72.2687 105.046C74.2087 100.556 79.5987 102.116 80.4387 101.386C81.2787 100.656 102.319 75.6565 102.899 74.4765C103.479 73.2965 103.639 44.4765 103.639 44.4765L113.969 39.1265Z"
                                fill="#4B5668" />
                            <g style="mix-blend-mode:multiply" opacity="0.4">
                                <path
                                    d="M112.149 55.4065C113.149 46.9265 113.959 39.1265 113.959 39.1265L103.649 44.5265C103.649 44.5265 103.569 59.8065 103.299 68.5265C104.199 67.2365 109.579 59.8765 112.149 55.4065Z"
                                    fill="#4B5668" />
                            </g>
                            <g style="mix-blend-mode:multiply" opacity="0.4">
                                <path
                                    d="M72.4487 107.156C74.6387 103.796 79.8787 101.806 80.1387 101.546C78.7287 101.926 74.0587 100.986 72.2787 105.076C72.0768 105.394 71.9841 105.769 72.0148 106.145C72.0455 106.52 72.1978 106.875 72.4487 107.156V107.156Z"
                                    fill="#4B5668" />
                            </g>
                            <path
                                d="M34.1287 86.7661C44.2087 90.0661 58.1287 101.826 63.4387 112.566L58.8987 117.426C48.2987 113.426 33.4887 99.5561 30.8987 91.5961L34.1287 86.7661Z"
                                fill="#EDBD15" />
                            <g style="mix-blend-mode:multiply">
                                <path
                                    d="M47.0588 94.0464C44.9688 97.0464 42.5188 99.8464 40.2688 102.816C40.0288 103.136 39.7988 103.466 39.5688 103.816C45.3188 109.646 52.7889 115.196 58.8689 117.466L63.4389 112.616C60.2189 106.046 53.8288 99.1764 47.0588 94.0464Z"
                                    fill="#EDBD15" />
                            </g>
                            <path
                                d="M4.68876 149.136C4.68876 149.136 1.11876 156.686 2.26876 157.716C3.78876 159.076 9.97876 153.186 9.97876 153.186L4.68876 149.136Z"
                                fill="#C6D0D5" />
                            <g style="mix-blend-mode:multiply">
                                <path
                                    d="M8.84875 150.436C7.73875 152.836 5.63875 155.906 2.94875 156.736C2.71143 156.808 2.46637 156.852 2.21875 156.866C2.2243 157.056 2.29898 157.237 2.42875 157.376C3.94875 158.736 10.1387 152.846 10.1387 152.846L8.84875 150.436Z"
                                    fill="#C7D1D6" />
                            </g>
                            <path
                                d="M2.84871 149.866C6.00871 141.726 20.4587 109.726 34.3487 88.5662C42.7187 75.8162 88.2087 4.56624 112.509 23.7662C134.099 40.7662 81.4487 93.6262 59.6987 114.646C42.8987 130.916 12.4487 153.436 10.2387 154.766C8.02871 156.096 2.23871 151.436 2.84871 149.866Z"
                                fill="#4B5668" />
                            <g style="mix-blend-mode:multiply" opacity="0.4">
                                <path
                                    d="M49.8988 113.676C43.4788 120.056 29.8088 133.676 20.7488 142.156C11.8988 150.466 7.09877 152.856 5.48877 153.406C7.13877 154.596 9.12877 155.406 10.2388 154.766C12.4588 153.436 42.8688 130.916 59.6888 114.656C78.8988 96.1163 122.059 52.8463 117.209 31.1963C117.209 33.5663 109.449 35.0563 105.209 44.3963C96.4488 63.8063 64.6588 99.0463 49.8988 113.676Z"
                                    fill="#4B5668" />
                            </g>
                            <path
                                d="M93.7588 47.9562C101.659 54.0762 111.429 54.7262 112.839 51.0262C118.589 39.5562 119.839 29.5762 112.499 23.7662C104.499 17.4362 94.1388 20.9762 83.5888 29.0062C81.3588 32.8962 85.2288 41.3562 93.7588 47.9562Z"
                                fill="#69778B" />
                            <path
                                d="M84.6888 28.1862C94.8988 20.7362 104.759 17.6562 112.499 23.7662C119.669 29.4262 118.649 39.0262 113.289 50.1062C107.429 58.4062 81.4588 40.7662 84.6888 28.1862Z"
                                fill="#EDBD15" />
                            <g style="mix-blend-mode:multiply">
                                <path
                                    d="M117.209 31.1562C116.559 41.6062 105.989 51.7563 95.2087 46.6763C102.119 51.8263 110.329 54.3363 113.329 50.1063C116.759 42.9563 118.399 36.4163 117.209 31.1562Z"
                                    fill="#EDBD15" />
                            </g>
                            <path
                                d="M11.3988 130.666C7.22878 139.426 4.11878 146.596 2.84878 149.876C2.23878 151.436 8.01878 156.096 10.2388 154.776C11.2388 154.186 17.6888 149.466 26.0688 142.986C21.6488 141.896 12.6388 135.226 11.3988 130.666Z"
                                fill="#EDBD15" />
                            <path
                                d="M11.3988 130.666C9.50881 135.556 21.3988 143.586 26.0688 142.976C21.6488 141.896 12.6388 135.226 11.3988 130.666Z"
                                fill="#FEEE28" />
                            <g style="mix-blend-mode:screen">
                                <path
                                    d="M3.40869 151.456C3.68008 151.814 3.98115 152.149 4.30869 152.456C6.75869 148.766 12.1287 141.226 15.5287 136.456C14.4021 135.438 13.3956 134.294 12.5287 133.046C9.76869 137.726 5.89869 146.046 3.40869 151.456Z"
                                    fill="#EDBD15" />
                            </g>
                            <g style="mix-blend-mode:multiply">
                                <path
                                    d="M21.2989 140.776C17.1089 145.776 12.2989 150.086 7.58887 154.606C7.98964 154.827 8.43435 154.955 8.89088 154.983C9.34742 155.011 9.80441 154.937 10.2289 154.766C11.2289 154.176 17.6789 149.456 26.0589 142.976C24.3752 142.474 22.7722 141.733 21.2989 140.776V140.776Z"
                                    fill="#EDBD15" />
                            </g>
                            <path
                                d="M34.1287 86.7661C38.4287 95.2661 53.3987 109.286 63.4387 112.566L58.8987 117.426C48.2987 113.426 33.4887 99.5561 30.8987 91.5961L34.1287 86.7661Z"
                                fill="#FEEE28" />
                            <path
                                d="M34.1287 86.7661C37.4287 96.7661 53.5287 111.046 63.4387 112.566L58.8987 117.426C48.2987 113.426 33.4887 99.5561 30.8987 91.5961L34.1287 86.7661Z"
                                fill="#EDBD15" />
                            <g style="mix-blend-mode:multiply">
                                <path
                                    d="M53.9886 107.516C56.8852 109.638 60.0665 111.342 63.4386 112.576L58.8986 117.426C55.601 116.1 52.4806 114.37 49.6086 112.276C51.0386 110.916 52.0486 109.646 53.9886 107.516Z"
                                    fill="#EDBD15" />
                            </g>
                            <g style="mix-blend-mode:screen">
                                <path
                                    d="M39.8988 94.8563C38.9788 93.8563 38.1188 92.7663 37.3488 91.7563C36.0888 93.4363 34.8988 95.1663 33.7588 96.9363C34.3588 97.7963 35.0388 98.6664 35.7588 99.5564C37.0582 97.9205 38.44 96.3518 39.8988 94.8563V94.8563Z"
                                    fill="#EDBD15" />
                            </g>
                            <g style="mix-blend-mode:screen" opacity="0.7">
                                <path
                                    d="M4.3487 153.046C5.3487 153.596 3.0887 156.376 2.9287 155.776C2.7687 155.176 3.5287 152.586 4.3487 153.046Z"
                                    fill="#C7D1D6" />
                            </g>
                            <g style="mix-blend-mode:screen" opacity="0.7">
                                <path
                                    d="M108.509 75.3764C108.999 73.7464 82.5887 103.606 83.1087 104.296C83.6287 104.986 107.699 78.0464 108.509 75.3764Z"
                                    fill="#4B5668" />
                            </g>
                            <g style="mix-blend-mode:screen" opacity="0.4">
                                <path
                                    d="M102.829 22.046C99.3888 21.746 93.8288 25.046 94.6488 26.656C96.8488 30.866 106.709 28.656 107.529 26.656C108.659 23.796 104.639 22.236 102.829 22.046Z"
                                    fill="#EDBD15" />
                            </g>
                            <g style="mix-blend-mode:screen" opacity="0.4">
                                <path
                                    d="M81.8989 41.4263C76.3089 41.6463 46.4089 78.5863 43.5989 87.6663C47.3389 85.8263 54.7889 74.4263 62.4589 65.1263C71.7289 53.9363 81.0489 44.5063 81.8989 41.4263Z"
                                    fill="#4B5668" />
                            </g>
                            <g style="mix-blend-mode:screen" opacity="0.4">
                                <path
                                    d="M33.6487 100.846C30.0187 103.476 18.5187 120.646 15.7087 129.726C19.6787 125.206 32.7487 103.926 33.6487 100.846Z"
                                    fill="#4B5668" />
                            </g>
                            <path
                                d="M44.2486 65.7664C44.6386 64.3364 72.1486 36.0464 74.4986 31.1064C65.9786 33.8064 27.4286 45.2464 24.9786 46.1664C21.8986 47.3164 14.6186 48.0464 12.3186 53.8364C10.0186 59.6264 12.3186 70.3364 12.3186 74.9364C12.3186 79.5364 11.1686 108.316 11.5486 112.536C11.7886 115.236 14.9986 117.906 18.0686 118.286C21.1386 118.666 26.1286 113.686 27.2786 110.616C28.4286 107.546 33.7986 69.9464 34.5686 67.2664C35.0386 65.5964 39.8986 65.5564 44.2486 65.7664Z"
                                fill="#FFC585" />
                            <path
                                d="M70.4086 111.976C68.6644 111.339 67.1262 110.24 65.9586 108.796C63.4586 111.096 61.2986 112.536 60.6586 112.536C58.7386 112.536 31.0286 119.306 29.1986 120.596C25.3586 123.286 22.2686 130.406 23.4486 137.476C24.2186 142.076 29.5886 143.616 33.8086 143.236C37.4286 142.906 57.9786 141.706 64.4986 141.316C68.7786 141.066 77.1586 137.476 79.4986 135.946C81.8386 134.416 97.8986 121.746 99.0186 119.826C99.1986 119.526 74.7386 113.616 70.4086 111.976Z"
                                fill="#FFC585" />
                            <path
                                d="M28.4286 124.816C31.1186 122.126 43.4286 122.516 43.7786 124.436C44.1286 126.356 44.1586 134.436 43.3986 136.716C42.6386 138.996 29.2086 141.716 27.6686 139.406C24.2886 134.326 25.9986 127.236 28.4286 124.816Z"
                                fill="#FFD5B8" />
                            <path
                                d="M19.8986 116.046C20.2209 111.284 20.1238 106.502 19.6086 101.756C19.2686 100.076 12.9586 99.9963 11.6086 99.6562C11.4586 105.656 11.3786 110.886 11.5286 112.496C11.7886 115.236 18.1686 117.816 19.8986 116.046Z"
                                fill="#FFD5B8" />
                            <g style="mix-blend-mode:multiply" opacity="0.4">
                                <path
                                    d="M117.899 91.9166C109.369 102.917 82.6987 130.187 72.5387 134.497C63.1387 138.497 31.9687 143.997 23.4287 137.497C24.1987 142.097 29.5687 143.637 33.7887 143.257C37.4087 142.927 57.9587 141.727 64.4787 141.337C68.7587 141.087 77.1387 137.497 79.4787 135.967C81.8187 134.437 97.8987 121.747 99.0187 119.827C100.139 117.907 114.099 107.267 116.279 103.137C117.399 101.017 119.279 95.1966 121.329 88.2266C120.239 89.4866 118.899 90.5866 117.899 91.9166Z"
                                    fill="#FFC585" />
                            </g>
                            <g style="mix-blend-mode:multiply" opacity="0.4">
                                <path
                                    d="M27.2787 110.616C28.4287 107.546 33.7987 69.9464 34.5687 67.2664C35.1087 65.3764 41.3487 65.5764 45.9387 65.8564C46.6987 65.8564 34.3287 61.1264 31.9387 64.3864C28.6687 68.9264 28.7787 100.256 19.9387 114.456C19.3536 115.307 18.5549 115.989 17.6227 116.433C16.6906 116.877 15.658 117.068 14.6287 116.986C15.6453 117.673 16.8043 118.121 18.0187 118.296C21.1387 118.676 26.1287 113.686 27.2787 110.616Z"
                                    fill="#FFC585" />
                            </g>
                        </svg>